<svg xmlns="http://www.w3.org/2000/svg" height="24" viewBox="0 -960 960 960" width="24"><path d="M172.309-140.001q-30.308 0-51.308-21t-21-51.308v-535.382q0-30.308 21-51.308t51.308-21h615.382q30.308 0 51.308 21t21 51.308v535.382q0 30.308-21 51.308t-51.308 21H172.309Zm0-59.999h615.382q4.616 0 8.463-3.846 3.846-3.847 3.846-8.463v-535.382q0-4.616-3.846-8.463-3.847-3.846-8.463-3.846H172.309q-4.616 0-8.463 3.846-3.846 3.847-3.846 8.463v535.382q0 4.616 3.846 8.463 3.847 3.846 8.463 3.846Zm37.692-90.001h179.998v-59.998H210.001v59.998ZM582-374.232 765.768-558 723-600.768l-141 142-57-57L483.232-473 582-374.232Zm-371.999-75.769h179.998v-59.998H210.001v59.998Zm0-160h179.998v-59.998H210.001v59.998ZM160-200V-760-200Z"/></svg>